<?xml version="1.0" encoding="utf-8"?>
<!-- Generator: Adobe Illustrator 24.0.0, SVG Export Plug-In . SVG Version: 6.00 Build 0)  -->
<svg version="1.1" id="Layer_1" xmlns="http://www.w3.org/2000/svg" xmlns:xlink="http://www.w3.org/1999/xlink" x="0px" y="0px"
	 viewBox="0 0 6571.98 2244.01" style="enable-background:new 0 0 6571.98 2244.01;" xml:space="preserve">
<style type="text/css">
	.st0{fill:#FFFFFF;}
</style>
<g>
	<g>
		<g>
			<g>
				<path class="st0" d="M2964.93,664.78v-90.1h390.11v90.1h-149.55v320.2h-91.01v-320.2H2964.93z"/>
				<path class="st0" d="M3695.46,734.6V574.34h91.01v410.63h-91.01V824.71h-155.24v160.26h-91V574.34h91V734.6H3695.46z"/>
				<path class="st0" d="M3879.99,984.97V574.34l327.88,0.34v90.1h-236.88v69.82h236.88v90.11h-236.88v70.15h236.88v90.11H3879.99z"
					/>
				<path class="st0" d="M4605.35,984.97l218.47-411.63l218.48,411.63h-110.08L4823.5,772.84l-111.76,212.13H4605.35z"/>
				<path class="st0" d="M5480.76,699.69c0,21.07-4.96,40.85-14.89,59.35c-9.92,18.51-23.7,33.52-41.31,45.06l66.24,180.87h-92.01
					l-58.88-160.26h-112.76v160.26h-91V574.34h218.81c34.79,0,64.46,12.19,89,36.58C5468.49,635.3,5480.76,664.89,5480.76,699.69z
					 M5379.72,724.29c6.91-6.87,10.37-15.07,10.37-24.6c0-9.53-3.46-17.73-10.37-24.6s-15.17-10.31-24.76-10.31h-127.81v69.82
					h127.81C5364.55,734.6,5372.81,731.16,5379.72,724.29z"/>
				<path class="st0" d="M5796.77,664.78c-32.57,0-60.45,11.36-83.65,34.08c-23.2,22.73-34.91,50.16-35.13,82.29
					c0,31.26,11.59,58.02,34.79,80.3s51.19,33.41,83.98,33.41c26.1,0,49.62-7.53,70.58-22.6l6.37-4.66l64.91,64.84l-8.03,6.33
					c-38.59,30.81-83.2,46.21-133.83,46.21c-28.55,0-55.83-5.38-81.81-16.13c-25.99-10.75-48.4-25.28-67.24-43.56
					c-18.86-18.28-33.91-39.94-45.18-65c-11.27-25.04-17.01-51.42-17.23-79.14v-1.33l2-0.32h-1.66h-0.34
					c0-37.02,9.48-71.27,28.44-102.75c18.96-31.48,44.66-56.36,77.12-74.65c32.46-18.29,67.76-27.43,105.9-27.43
					c50.62,0,95.24,15.41,133.83,46.21l8.03,6.32l-64.91,64.84l-6.37-4.65C5846.4,672.32,5822.87,664.78,5796.77,664.78z"/>
				<path class="st0" d="M6279.39,734.6V574.34h91v410.63h-91V824.71h-155.24v160.26h-91V574.34h91V734.6H6279.39z"/>
			</g>
		</g>
		<g>
			<g>
				<path class="st0" d="M3055.36,1580.21h-90.44v-410.63h90.44V1580.21z"/>
				<path class="st0" d="M3451.24,1375.06v-205.49h90.44v408.31l-244.72-199.16v201.49h-90.44v-410.63L3451.24,1375.06z"/>
				<path class="st0" d="M3692.48,1260.01v-90.1h387.7v90.1h-148.64v320.2h-90.44v-320.2H3692.48z"/>
				<path class="st0" d="M4231.66,1580.21v-410.63l325.84,0.34v90.1h-235.4v69.82h235.4v90.11h-235.4v70.16h235.4v90.1H4231.66z"/>
				<path class="st0" d="M5052.12,1294.92c0,21.07-4.93,40.85-14.8,59.35c-9.86,18.51-23.55,33.54-41.05,45.06l65.83,180.87h-91.44
					l-58.51-160.26h-112.06v160.26h-90.44v-410.63h217.45c34.58,0,64.06,12.19,88.45,36.58
					C5039.92,1230.54,5052.12,1260.13,5052.12,1294.92z M4951.71,1319.53c6.87-6.86,10.31-15.06,10.31-24.6
					c0-9.52-3.44-17.72-10.31-24.6c-6.87-6.86-15.07-10.31-24.6-10.31h-127.01v69.82h127.01
					C4936.64,1329.83,4944.84,1326.41,4951.71,1319.53z"/>
				<path class="st0" d="M5304.35,1580.21h-90.44v-410.63h90.44V1580.21z"/>
				<path class="st0" d="M5557.91,1197.51c31.48-18.4,65.83-27.6,103.07-27.6s71.59,9.2,103.08,27.6
					c31.46,18.39,56.4,43.33,74.81,74.81c18.39,31.48,27.6,65.83,27.6,103.07c0,37.24-9.21,71.6-27.6,103.08
					c-18.4,31.48-43.34,56.42-74.81,74.81c-31.49,18.39-65.84,27.6-103.08,27.6s-71.59-9.21-103.07-27.6
					c-31.48-18.39-56.42-43.33-74.81-74.81c-18.4-31.48-27.6-65.84-27.6-103.08c0-37.24,9.2-71.59,27.6-103.07
					C5501.49,1240.84,5526.43,1215.9,5557.91,1197.51z M5742.44,1456.69c22.62-22.5,33.92-49.59,33.92-81.3
					c0-31.7-11.3-58.85-33.92-81.46c-22.6-22.6-49.76-33.92-81.46-33.92s-58.8,11.31-81.29,33.92
					c-22.51,22.61-33.75,49.76-33.75,81.46c0,31.71,11.24,58.8,33.75,81.3c22.49,22.5,49.59,33.74,81.29,33.74
					S5719.83,1479.19,5742.44,1456.69z"/>
				<path class="st0" d="M6360.41,1294.92c0,21.07-4.93,40.85-14.79,59.35c-9.86,18.51-23.55,33.54-41.05,45.06l65.83,180.87h-91.44
					l-58.51-160.26h-112.06v160.26h-90.44v-410.63h217.45c34.58,0,64.06,12.19,88.45,36.58
					C6348.22,1230.54,6360.41,1260.13,6360.41,1294.92z M6260,1319.53c6.87-6.86,10.31-15.06,10.31-24.6
					c0-9.52-3.44-17.72-10.31-24.6c-6.87-6.86-15.07-10.31-24.6-10.31h-127.01v69.82h127.01
					C6244.93,1329.83,6253.13,1326.41,6260,1319.53z"/>
			</g>
		</g>
	</g>
	<g>
		<path class="st0" d="M218.84,1789.58l751.6-1424.95l751.61,1424.95h-378.68l-374.07-734.34l-384.43,734.34H218.84z"/>
		<path class="st0" d="M2136.41,1789.58h-313.07V368.1h313.07V1789.58z"/>
	</g>
	<rect x="2534.14" y="67.29" class="st0" width="33.05" height="2019.64"/>
</g>
</svg>
